<svg width="99" height="29" viewBox="0 0 99 29" fill="none" xmlns="http://www.w3.org/2000/svg">
<path d="M98.2901 25.5693C98.2901 27.1034 97.0332 28.3461 95.4785 28.3461H3.4672C1.914 28.3461 0.652664 27.1034 0.652664 25.5693V3.42564C0.652664 1.89226 1.914 0.645264 3.46866 0.645264H95.4778C97.0325 0.645264 98.2894 1.89226 98.2894 3.42564L98.2909 25.5693H98.2901Z" fill="black"/>
<path d="M22.0939 14.3434C22.0719 12.0067 24.0299 10.8706 24.1179 10.817C23.0105 9.21982 21.2931 9.00159 20.6895 8.98419C19.2471 8.83412 17.8479 9.83752 17.1131 9.83752C16.3636 9.83752 15.2321 8.99797 14.0125 9.02262C12.4432 9.04654 10.9751 9.94482 10.1699 11.3397C8.50814 14.1839 9.74747 18.3635 11.3395 20.6632C12.1359 21.7884 13.0665 23.0456 14.2846 23.0013C15.4755 22.9528 15.9199 22.2502 17.3587 22.2502C18.7836 22.2502 19.2016 23.0021 20.4439 22.9738C21.7221 22.9535 22.5265 21.8428 23.2965 20.7067C24.2161 19.4162 24.5857 18.146 24.6004 18.0808C24.5711 18.0706 22.1166 17.1455 22.0924 14.3441L22.0939 14.3434ZM19.7472 7.47184C20.3881 6.67942 20.8267 5.60134 20.7049 4.50659C19.7773 4.54792 18.6171 5.14169 17.9491 5.91672C17.358 6.60039 16.83 7.71979 16.9664 8.77322C18.0077 8.84934 19.0784 8.25267 19.7472 7.47257V7.47184ZM39.3397 22.8404H37.675L36.762 20.0056H33.5911L32.7221 22.8404H31.1014L34.243 13.1921H36.1834L39.3404 22.8404H39.3397ZM36.487 18.8166L35.662 16.298C35.574 16.0406 35.4112 15.4352 35.1707 14.4804H35.1413C35.0445 14.8908 34.8898 15.4969 34.6771 16.298L33.8668 18.8174H36.487V18.8166ZM47.4188 19.2763C47.4188 20.4595 47.0961 21.3947 46.4486 22.082C45.8693 22.6925 45.1491 22.9977 44.2904 22.9977C43.3635 22.9977 42.6976 22.6693 42.2921 22.0117H42.2627V25.6759H40.7V18.1736C40.7 17.4297 40.6802 16.6656 40.6413 15.8826H42.0171L42.1051 16.986H42.1344C42.6551 16.1544 43.4471 15.739 44.5082 15.739C45.3383 15.739 46.0313 16.0638 46.5857 16.7127C47.1416 17.3623 47.4188 18.2163 47.4188 19.2756V19.2763ZM45.826 19.3328C45.826 18.6557 45.672 18.0974 45.3625 17.6581C45.0252 17.1999 44.5705 16.9708 44.0015 16.9708C43.6157 16.9708 43.2652 17.0984 42.9528 17.35C42.6375 17.6037 42.4321 17.9358 42.3368 18.3461C42.2884 18.5375 42.2635 18.6941 42.2635 18.8174V19.9774C42.2635 20.4834 42.4211 20.9104 42.735 21.2592C43.0489 21.6079 43.4566 21.7812 43.9582 21.7812C44.5471 21.7812 45.0054 21.5564 45.3332 21.1091C45.6617 20.6596 45.826 20.0687 45.826 19.3328ZM55.5133 19.2763C55.5133 20.4595 55.1892 21.3947 54.5417 22.082C53.9623 22.6925 53.2437 22.9977 52.3857 22.9977C51.458 22.9977 50.7921 22.6693 50.3873 22.0117H50.358V25.6759H48.7945V18.1736C48.7945 17.4297 48.7747 16.6656 48.7359 15.8826H50.1116L50.1996 16.986H50.2289C50.7496 16.1544 51.5401 15.739 52.6027 15.739C53.4329 15.739 54.1259 16.0638 54.6817 16.7127C55.2354 17.3623 55.5133 18.2163 55.5133 19.2756V19.2763ZM53.9198 19.3328C53.9198 18.6557 53.7658 18.0974 53.4556 17.6581C53.1183 17.1999 52.6651 16.9708 52.0953 16.9708C51.7081 16.9708 51.3583 17.0984 51.0444 17.35C50.7305 17.6037 50.5259 17.9358 50.4299 18.3461C50.3815 18.5375 50.3565 18.6941 50.3565 18.8174V19.9774C50.3565 20.4834 50.5135 20.9104 50.8259 21.2592C51.1397 21.6072 51.5475 21.7812 52.0505 21.7812C52.6394 21.7812 53.0977 21.5564 53.4255 21.1091C53.7541 20.6596 53.9183 20.0687 53.9183 19.3328H53.9198ZM64.5627 20.1347C64.5627 20.9554 64.2737 21.6231 63.6951 22.1386C63.0593 22.7019 62.1742 22.9832 61.0368 22.9832C59.9867 22.9832 59.1448 22.7838 58.5068 22.3829L58.8698 21.0946C59.5562 21.5049 60.3093 21.7108 61.1299 21.7108C61.7181 21.7108 62.1764 21.5789 62.5057 21.3164C62.8335 21.0554 62.997 20.7024 62.997 20.263C62.997 19.8715 62.8621 19.5416 62.5915 19.2741C62.3223 19.0059 61.8728 18.7579 61.2451 18.5274C59.5364 17.8981 58.6828 16.9759 58.6828 15.7615C58.6828 14.9683 58.982 14.3187 59.5811 13.8112C60.1781 13.3052 60.9745 13.0522 61.9703 13.0522C62.8577 13.0522 63.5961 13.2059 64.185 13.5111L63.7941 14.7711C63.2441 14.4761 62.6223 14.3289 61.9263 14.3289C61.3763 14.3289 60.9466 14.4623 60.6386 14.7291C60.3783 14.9683 60.2477 15.2583 60.2477 15.6027C60.2477 15.9841 60.3966 16.2987 60.6951 16.5474C60.9561 16.7765 61.4284 17.0244 62.1155 17.292C62.9552 17.6255 63.5719 18.017 63.9687 18.465C64.3647 18.9116 64.5627 19.4706 64.5627 20.1376V20.1347ZM69.7312 17.0433H68.0079V20.4218C68.0079 21.2802 68.3115 21.7094 68.9201 21.7094C69.1988 21.7094 69.4313 21.6855 69.6146 21.6369L69.6571 22.8114C69.3491 22.9252 68.9436 22.9825 68.4413 22.9825C67.8238 22.9825 67.3413 22.7962 66.9929 22.4242C66.6461 22.0516 66.4723 21.4266 66.4723 20.5487V17.0418H65.4456V15.8818H66.4723V14.6087L68.0071 14.1498V15.8826H69.7305V17.0426L69.7312 17.0433ZM77.506 19.3046C77.506 20.3739 77.198 21.2519 76.5798 21.9385C75.9323 22.6454 75.0728 22.997 74.0014 22.997C72.9696 22.997 72.1475 22.6591 71.5345 21.982C70.9214 21.3048 70.6149 20.4501 70.6149 19.4198C70.6149 18.3418 70.9302 17.4587 71.5631 16.7721C72.1937 16.0848 73.0466 15.7412 74.118 15.7412C75.1498 15.7412 75.9807 16.0798 76.6077 16.7576C77.2075 17.4152 77.5067 18.2642 77.5067 19.3046H77.506ZM75.8853 19.3553C75.8853 18.713 75.746 18.1627 75.4651 17.7038C75.1373 17.1477 74.6687 16.87 74.0615 16.87C73.4331 16.87 72.9557 17.1484 72.6279 17.7038C72.347 18.1627 72.2084 18.7217 72.2084 19.3829C72.2084 20.0245 72.3477 20.5748 72.6279 21.033C72.9652 21.5883 73.4382 21.8653 74.0476 21.8653C74.6445 21.8653 75.1131 21.5825 75.4512 21.0185C75.7394 20.5508 75.8839 19.9948 75.8839 19.3539L75.8853 19.3553ZM82.588 17.2427C82.434 17.2137 82.269 17.1992 82.0967 17.1992C81.5467 17.1992 81.1213 17.4051 80.8207 17.8154C80.5611 18.1779 80.4305 18.6368 80.4305 19.19V22.8397H78.8685L78.8832 18.0735C78.8832 17.2717 78.8627 16.5416 78.8245 15.884H80.1856L80.2428 17.2144H80.2868C80.4511 16.7576 80.7121 16.3879 81.0678 16.1124C81.4161 15.8637 81.7923 15.7397 82.1971 15.7397C82.3423 15.7397 82.4729 15.7506 82.5887 15.7687V17.2427H82.588ZM89.5811 19.0327C89.5811 19.3096 89.5627 19.5431 89.5239 19.7338H84.8335C84.8518 20.4203 85.0784 20.946 85.514 21.3085C85.91 21.6325 86.4204 21.7942 87.0481 21.7942C87.7426 21.7942 88.3755 21.6855 88.946 21.4658L89.1909 22.5388C88.5251 22.8252 87.7389 22.968 86.8318 22.968C85.7406 22.968 84.8841 22.6504 84.2607 22.0161C83.6396 21.381 83.3279 20.5298 83.3279 19.4604C83.3279 18.4114 83.6176 17.5377 84.1977 16.841C84.8049 16.0972 85.6255 15.7245 86.658 15.7245C87.6715 15.7245 88.44 16.0972 88.9607 16.841C89.3735 17.4319 89.5811 18.1627 89.5811 19.0305V19.0327ZM88.0902 18.6318C88.1005 18.1728 87.9985 17.7763 87.7866 17.4428C87.5153 17.0128 87.0995 16.7975 86.5399 16.7975C86.0288 16.7975 85.613 17.0078 85.2955 17.4283C85.0351 17.7618 84.8804 18.1634 84.8335 18.6303H88.0895L88.0902 18.6318Z" fill="white"/>
<path d="M35.97 7.25732C35.97 8.10992 35.7111 8.75227 35.1941 9.18365C34.7153 9.5824 34.0355 9.78105 33.1533 9.78105C32.7155 9.78105 32.3415 9.76292 32.0283 9.72522V5.06347C32.4368 4.99822 32.8768 4.96415 33.352 4.96415C34.1924 4.96415 34.826 5.1454 35.2513 5.50572C35.7302 5.9139 35.97 6.49752 35.97 7.25732ZM35.1597 7.27762C35.1597 6.72445 35.0115 6.30032 34.7153 6.00452C34.4183 5.70945 33.9856 5.56227 33.4158 5.56227C33.1738 5.56227 32.9685 5.57677 32.7969 5.61085V9.15465C32.8922 9.16915 33.0645 9.1764 33.3161 9.1764C33.9042 9.1764 34.3574 9.014 34.6779 8.69065C34.9983 8.3673 35.1582 7.89605 35.1582 7.2769L35.1597 7.27762ZM40.2673 8.0019C40.2673 8.52752 40.1148 8.9589 39.8112 9.29602C39.4929 9.64402 39.0705 9.81657 38.5447 9.81657C38.0387 9.81657 37.6339 9.64982 37.3325 9.31632C37.0319 8.98427 36.8815 8.5645 36.8815 8.05845C36.8815 7.5292 37.0355 7.0942 37.3472 6.7578C37.6589 6.4214 38.0761 6.25247 38.6027 6.25247C39.1087 6.25247 39.5171 6.41922 39.8259 6.75127C40.1192 7.07535 40.2659 7.49295 40.2659 8.00335L40.2673 8.0019ZM39.4695 8.02655C39.4695 7.7119 39.4005 7.44147 39.2641 7.216C39.1028 6.9434 38.8725 6.8071 38.5748 6.8071C38.2653 6.8071 38.0307 6.9434 37.8693 7.216C37.7315 7.44075 37.664 7.71625 37.664 8.04105C37.664 8.35642 37.7322 8.62685 37.8693 8.85305C38.0358 9.12492 38.2675 9.26122 38.566 9.26122C38.8593 9.26122 39.0903 9.12347 39.2553 8.84507C39.3983 8.61452 39.4695 8.34192 39.4695 8.02582V8.02655ZM46.0277 6.32207L44.946 9.739H44.242L43.7947 8.25492C43.6803 7.88517 43.5879 7.51542 43.516 7.15075H43.5013C43.4353 7.5263 43.3429 7.89387 43.2241 8.25492L42.7475 9.739H42.0361L41.019 6.32207H41.8088L42.1997 7.94607C42.295 8.33032 42.372 8.69645 42.4343 9.043H42.449C42.5055 8.75735 42.6001 8.3934 42.7335 7.95332L43.2249 6.32207H43.8504L44.3197 7.91852C44.4341 8.30785 44.5265 8.68267 44.5984 9.04372H44.6189C44.6703 8.6921 44.7495 8.31727 44.8536 7.91852L45.2731 6.32207H46.0284H46.0277ZM50.0119 9.739H49.2433V7.7815C49.2433 7.1783 49.0116 6.8767 48.5467 6.8767C48.3193 6.8767 48.1345 6.95935 47.9915 7.12537C47.85 7.29212 47.7789 7.48787 47.7789 7.71117V9.73827H47.0089V7.29792C47.0089 6.99777 47.0001 6.67225 46.9817 6.31917H47.6564L47.6931 6.85422H47.7151C47.8031 6.68747 47.9373 6.55117 48.1125 6.44097C48.3208 6.3141 48.554 6.24957 48.8092 6.24957C49.1319 6.24957 49.4003 6.35252 49.6137 6.55915C49.8791 6.8129 50.0119 7.1899 50.0119 7.6916V9.73827V9.739ZM52.1312 9.739H51.3627V4.75317H52.1312V9.739ZM56.6559 8.0019C56.6559 8.52752 56.5041 8.9589 56.2012 9.29602C55.8822 9.64402 55.4605 9.81657 54.934 9.81657C54.4258 9.81657 54.0217 9.64982 53.7211 9.31632C53.4204 8.98427 53.2701 8.5645 53.2701 8.05845C53.2701 7.5292 53.4255 7.0942 53.7365 6.7578C54.0474 6.4214 54.4654 6.25247 54.9905 6.25247C55.4994 6.25247 55.9071 6.41922 56.2151 6.75127C56.5085 7.07535 56.6566 7.49295 56.6566 8.00335L56.6559 8.0019ZM55.858 8.02655C55.858 7.7119 55.7891 7.44147 55.6527 7.216C55.4913 6.9434 55.2611 6.8071 54.9633 6.8071C54.6539 6.8071 54.4192 6.9434 54.2593 7.216C54.12 7.44075 54.0525 7.71625 54.0525 8.04105C54.0525 8.35642 54.1215 8.62685 54.2579 8.85305C54.4251 9.12492 54.6568 9.26122 54.956 9.26122C55.2493 9.26122 55.4789 9.12347 55.6453 8.84507C55.7876 8.61452 55.858 8.34192 55.858 8.02582V8.02655ZM60.3753 9.739H59.686L59.6273 9.34532H59.6068C59.3707 9.65925 59.0348 9.81657 58.597 9.81657C58.2707 9.81657 58.0067 9.7129 57.8079 9.507C57.6268 9.31995 57.5366 9.0865 57.5366 8.811C57.5366 8.3934 57.7126 8.07512 58.0668 7.854C58.4203 7.63432 58.9175 7.5263 59.5577 7.53137V7.46757C59.5577 7.01807 59.3186 6.79332 58.839 6.79332C58.4987 6.79332 58.1981 6.87742 57.9385 7.04562L57.7823 6.54682C58.1035 6.35107 58.5009 6.25175 58.9681 6.25175C59.8715 6.25175 60.3247 6.723 60.3247 7.6655V8.9241C60.3247 9.26485 60.3416 9.53672 60.3746 9.73827L60.3753 9.739ZM59.5775 8.5645V8.03742C58.7297 8.02292 58.3059 8.25275 58.3059 8.72617C58.3059 8.90452 58.3543 9.03792 58.4525 9.1271C58.5523 9.21555 58.6784 9.25977 58.8287 9.25977C58.9974 9.25977 59.1558 9.20685 59.2995 9.10172C59.444 8.99587 59.5327 8.86247 59.5657 8.69717C59.5731 8.66092 59.5782 8.61525 59.5782 8.56377L59.5775 8.5645ZM64.7423 9.739H64.0603L64.0237 9.19017H64.0031C63.7853 9.60777 63.4143 9.81657 62.8929 9.81657C62.4763 9.81657 62.1302 9.6549 61.8545 9.33082C61.5787 9.00675 61.4423 8.58842 61.4423 8.07295C61.4423 7.51977 61.5912 7.07245 61.8897 6.72952C62.1801 6.41052 62.535 6.25102 62.9574 6.25102C63.4223 6.25102 63.7472 6.40545 63.9327 6.71502H63.9474V4.75317H64.7159V8.81825C64.7159 9.15175 64.7247 9.4577 64.7431 9.739H64.7423ZM63.9467 8.2977V7.72785C63.9467 7.62852 63.9393 7.54877 63.9247 7.4886C63.8807 7.30517 63.7883 7.15147 63.646 7.0275C63.5037 6.90425 63.3307 6.84117 63.1327 6.84117C62.8467 6.84117 62.6215 6.95355 62.4565 7.17902C62.293 7.40377 62.2101 7.69232 62.2101 8.04395C62.2101 8.3818 62.2886 8.65585 62.4463 8.86682C62.6127 9.09157 62.8371 9.20467 63.118 9.20467C63.3703 9.20467 63.5727 9.11042 63.7252 8.92337C63.8733 8.74937 63.9452 8.5413 63.9452 8.2977H63.9467ZM71.3152 8.0019C71.3152 8.52752 71.1634 8.9589 70.8605 9.29602C70.5415 9.64402 70.1199 9.81657 69.5933 9.81657C69.0873 9.81657 68.6825 9.64982 68.3804 9.31632C68.0797 8.98427 67.9294 8.5645 67.9294 8.05845C67.9294 7.5292 68.0849 7.0942 68.3958 6.7578C68.7067 6.4214 69.1247 6.25247 69.652 6.25247C70.158 6.25247 70.5665 6.41922 70.8745 6.75127C71.1678 7.07535 71.3145 7.49295 71.3145 8.00335L71.3152 8.0019ZM70.5188 8.02655C70.5188 7.7119 70.4499 7.44147 70.3135 7.216C70.1507 6.9434 69.9219 6.8071 69.6227 6.8071C69.3147 6.8071 69.08 6.9434 68.9187 7.216C68.7793 7.44075 68.7119 7.71625 68.7119 8.04105C68.7119 8.35642 68.7808 8.62685 68.9172 8.85305C69.0844 9.12492 69.3161 9.26122 69.6153 9.26122C69.9087 9.26122 70.1397 9.12347 70.3047 8.84507C70.4469 8.61452 70.5188 8.34192 70.5188 8.02582V8.02655ZM75.4475 9.739H74.6797V7.7815C74.6797 7.1783 74.448 6.8767 73.9831 6.8767C73.7543 6.8767 73.5702 6.95935 73.4279 7.12537C73.2857 7.2914 73.2138 7.48787 73.2138 7.71117V9.73827H72.4438V7.29792C72.4438 6.99777 72.4365 6.67225 72.4174 6.31917H73.0921L73.1287 6.85422H73.1493C73.2395 6.68747 73.3729 6.55117 73.5475 6.44097C73.7565 6.3141 73.9889 6.24957 74.2441 6.24957C74.5668 6.24957 74.8352 6.35252 75.0486 6.55915C75.3148 6.8129 75.4468 7.1899 75.4468 7.6916V9.73827L75.4475 9.739ZM80.6197 6.89047H79.7735V8.55072C79.7735 8.97267 79.9238 9.18365 80.2208 9.18365C80.3601 9.18365 80.4738 9.17205 80.564 9.1474L80.5838 9.7245C80.432 9.78105 80.2318 9.80932 79.9869 9.80932C79.6833 9.80932 79.4471 9.71797 79.2755 9.53527C79.1047 9.35257 79.0189 9.04517 79.0189 8.61452V6.88975H78.5143V6.32207H79.0203V5.69495L79.7727 5.4702V6.32062H80.6197V6.89047ZM84.6883 9.739H83.9183V7.796C83.9183 7.18337 83.6873 6.8767 83.2231 6.8767C82.8667 6.8767 82.6232 7.05432 82.4897 7.40957C82.4677 7.48425 82.4531 7.57632 82.4531 7.6829V9.73827H81.686V4.75317H82.4538V6.81217H82.4685C82.7105 6.43807 83.0573 6.25102 83.5069 6.25102C83.8251 6.25102 84.0884 6.35397 84.2974 6.5606C84.5585 6.81725 84.689 7.20005 84.689 7.7061V9.73827L84.6883 9.739ZM88.8851 7.8685C88.8851 8.0048 88.8749 8.11935 88.8558 8.21287H86.5517C86.5619 8.55072 86.6719 8.80737 86.8853 8.98645C87.0804 9.14595 87.3327 9.2257 87.6407 9.2257C87.9809 9.2257 88.2919 9.17205 88.572 9.06402L88.6923 9.59182C88.3645 9.73247 87.9787 9.80207 87.5321 9.80207C86.9968 9.80207 86.5751 9.64692 86.2708 9.33517C85.9628 9.02342 85.8117 8.6051 85.8117 8.08092C85.8117 7.56472 85.9533 7.13552 86.2385 6.79332C86.5363 6.42792 86.9389 6.24522 87.4471 6.24522C87.9443 6.24522 88.3219 6.42792 88.5764 6.79332C88.7832 7.08332 88.8844 7.4422 88.8844 7.8685H88.8851ZM88.1518 7.67275C88.1577 7.44655 88.1078 7.25225 88.0029 7.0884C87.8695 6.87815 87.6656 6.77157 87.3913 6.77157C87.1405 6.77157 86.9367 6.87452 86.7797 7.08115C86.6521 7.24572 86.5766 7.4422 86.5524 7.67202H88.1511L88.1518 7.67275Z" fill="white"/>
</svg>
