<svg width="99" height="29" viewBox="0 0 99 29" fill="none" xmlns="http://www.w3.org/2000/svg">
<path d="M95.3333 28.9999H3.66667C1.65 28.9999 0 27.3686 0 25.3749V3.62498C0 1.63124 1.65 0 3.66667 0H95.3333C97.35 0 99 1.63124 99 3.62498V25.3749C99 27.3686 97.35 28.9999 95.3333 28.9999Z" fill="black"/>
<path d="M95.3333 0.579997C97.0317 0.579997 98.4133 1.94589 98.4133 3.62498V25.3749C98.4133 27.054 97.0317 28.4199 95.3333 28.4199H3.66667C1.96827 28.4199 0.586667 27.054 0.586667 25.3749V3.62498C0.586667 1.94589 1.96827 0.579997 3.66667 0.579997H95.3333ZM95.3333 0H3.66667C1.65 0 0 1.63124 0 3.62498V25.3749C0 27.3686 1.65 28.9999 3.66667 28.9999H95.3333C97.35 28.9999 99 27.3686 99 25.3749V3.62498C99 1.63124 97.35 0 95.3333 0Z" fill="#A6A6A6"/>
<path d="M34.7732 7.42609C34.7732 8.03364 34.5913 8.51793 34.2269 8.87826C33.8133 9.30746 33.2735 9.52205 32.6106 9.52205C31.9748 9.52205 31.4351 9.30455 30.9899 8.86956C30.5463 8.43456 30.3241 7.89371 30.3241 7.24991C30.3241 6.60467 30.5463 6.066 30.9914 5.631C31.4351 5.196 31.9741 4.9785 32.6099 4.9785C32.9252 4.9785 33.2259 5.03868 33.5119 5.15975C33.7979 5.28155 34.0289 5.4425 34.2012 5.6455L33.814 6.02975C33.5221 5.68465 33.121 5.51282 32.6091 5.51282C32.1449 5.51282 31.7438 5.67232 31.4065 5.99567C31.0691 6.31757 30.9005 6.73517 30.9005 7.24991C30.9005 7.76466 31.0691 8.18226 31.4065 8.50416C31.7438 8.82678 32.1449 8.98773 32.6091 8.98773C33.1005 8.98773 33.5097 8.82533 33.8375 8.50198C34.0501 8.29173 34.1733 7.99739 34.2063 7.62039H32.6077V7.09839H34.7402C34.7622 7.21222 34.771 7.32169 34.771 7.42681L34.7732 7.42609ZM38.1539 5.60925H36.1497V6.98892H37.9566V7.51091H36.1489V8.89058H38.1531V9.4249H35.5843V5.07493H38.1531V5.60925H38.1539ZM40.5387 9.4249H39.9718V5.60925H38.742V5.07493H41.7663V5.60925H40.5387V9.4249ZM43.9545 9.4249V5.07493H44.5192V9.4249H43.9545ZM47.0272 9.4249H46.4625V5.60925H45.232V5.07493H48.2563V5.60925H47.0272V9.4249ZM53.9807 8.86303C53.548 9.30238 53.0097 9.52278 52.3673 9.52278C51.7235 9.52278 51.1867 9.30238 50.754 8.86303C50.3213 8.42368 50.1057 7.88574 50.1057 7.24991C50.1057 6.61409 50.3213 6.07542 50.754 5.6368C51.1867 5.19745 51.7235 4.97705 52.3673 4.97705C53.0053 4.97705 53.5429 5.19817 53.977 5.6397C54.4111 6.0805 54.6282 6.61844 54.6282 7.24919C54.6282 7.88501 54.4119 8.42368 53.9799 8.86231L53.9807 8.86303ZM51.172 8.49836C51.4976 8.82461 51.8958 8.98773 52.3673 8.98773C52.8381 8.98773 53.2371 8.82461 53.5627 8.49836C53.8875 8.17211 54.0511 7.75596 54.0511 7.24991C54.0511 6.74387 53.8875 6.32772 53.5619 6.00147C53.2363 5.67522 52.8374 5.51282 52.3666 5.51282C51.8951 5.51282 51.4969 5.67522 51.1713 6.00147C50.8457 6.32772 50.6821 6.74387 50.6821 7.24991C50.6821 7.75596 50.8457 8.17284 51.1705 8.49836H51.172ZM55.4217 9.4249V5.07493H56.111L58.2487 8.45921H58.2729L58.2487 7.62039V5.07493H58.8133V9.4249H58.2237L55.9871 5.87677H55.9621L55.9871 6.71559V9.4249H55.4224H55.4217Z" fill="white" stroke="white" stroke-width="0.2" stroke-miterlimit="10"/>
<path d="M49.9664 15.77C48.2416 15.77 46.8351 17.0663 46.8351 18.8534C46.8351 20.6297 48.2416 21.9368 49.9664 21.9368C51.6912 21.9368 53.0977 20.6289 53.0977 18.8534C53.0977 17.0663 51.6912 15.77 49.9664 15.77ZM49.9664 20.7217C49.0204 20.7217 48.2064 19.9511 48.2064 18.8534C48.2064 17.7442 49.0204 16.9844 49.9664 16.9844C50.9124 16.9844 51.7264 17.7435 51.7264 18.8534C51.7264 19.9511 50.9124 20.7225 49.9664 20.7225V20.7217ZM43.1361 15.77C41.4113 15.77 40.0048 17.0663 40.0048 18.8534C40.0048 20.6297 41.4113 21.9368 43.1361 21.9368C44.8609 21.9368 46.2675 20.6289 46.2675 18.8534C46.2675 17.0663 44.8609 15.77 43.1361 15.77ZM43.1361 20.7217C42.1916 20.7217 41.3761 19.9511 41.3761 18.8534C41.3761 17.7442 42.1916 16.9844 43.1361 16.9844C44.0821 16.9844 44.8961 17.7435 44.8961 18.8534C44.8961 19.9511 44.0821 20.7225 43.1361 20.7225V20.7217ZM35.0123 16.7161V18.024H38.1781C38.0842 18.7606 37.8363 19.2979 37.4579 19.6719C36.9974 20.1272 36.2773 20.6289 35.013 20.6289C33.0623 20.6289 31.5392 19.076 31.5392 17.149C31.5392 15.2219 33.0631 13.669 35.013 13.669C36.0646 13.669 36.8317 14.0772 37.3993 14.6028L38.3328 13.6806C37.5408 12.9338 36.4899 12.3611 35.0137 12.3611C32.3444 12.3611 30.0989 14.51 30.0989 17.1497C30.0989 19.7887 32.3429 21.9383 35.0137 21.9383C36.4547 21.9383 37.5415 21.4714 38.3922 20.5949C39.2671 19.7307 39.5391 18.5163 39.5391 17.5354C39.5391 17.2309 39.5157 16.951 39.468 16.7176H35.0145L35.0123 16.7161ZM68.2381 17.7311C67.9778 17.0424 67.1865 15.77 65.5688 15.77C63.9613 15.77 62.6259 17.0199 62.6259 18.8534C62.6259 20.5818 63.9489 21.9368 65.7206 21.9368C67.1506 21.9368 67.9771 21.0726 68.3203 20.5702L67.2569 19.8691C66.902 20.3839 66.418 20.7225 65.7206 20.7225C65.0239 20.7225 64.5275 20.4064 64.2085 19.7872L68.3789 18.0835L68.2374 17.7319L68.2381 17.7311ZM63.9848 18.7606C63.9496 17.5687 64.9183 16.9612 65.615 16.9612C66.1577 16.9612 66.6197 17.2294 66.7737 17.6151L63.9848 18.7606ZM60.5939 21.7498H61.9652V12.6873H60.5939V21.7498ZM58.3499 16.4588H58.3022C57.9942 16.0963 57.4046 15.77 56.6595 15.77C55.1005 15.77 53.6712 17.1258 53.6712 18.8658C53.6712 20.5934 55.1012 21.9368 56.6603 21.9368C57.4046 21.9368 57.9949 21.6106 58.3029 21.2358H58.3491V21.6809C58.3491 22.8605 57.7111 23.4912 56.6845 23.4912C55.8448 23.4912 55.3249 22.8967 55.1122 22.3936L53.9191 22.8844C54.2615 23.7022 55.1716 24.7063 56.6837 24.7063C58.2897 24.7063 59.6493 23.7711 59.6493 21.4946V15.9571H58.3491V16.4588H58.3499ZM56.7783 20.7217C55.8323 20.7217 55.0418 19.9387 55.0418 18.8658C55.0418 17.7783 55.8338 16.9844 56.7783 16.9844C57.7119 16.9844 58.443 17.779 58.443 18.865C58.443 19.9402 57.7119 20.7232 56.7783 20.7232V20.7217ZM74.657 12.6866H71.379V21.7498H72.7467V18.3162H74.6577C76.1743 18.3162 77.6644 17.2309 77.6644 15.501C77.6644 13.7712 76.1743 12.6881 74.6577 12.6881L74.657 12.6866ZM74.6937 17.054H72.7467V13.9488H74.6929C75.7159 13.9488 76.2967 14.7855 76.2967 15.5003C76.2967 16.2036 75.7174 17.0547 74.6937 17.0547V17.054ZM83.149 15.7526C82.159 15.7526 81.1323 16.1833 80.707 17.1395L81.9229 17.6398C82.1825 17.1395 82.6657 16.9757 83.1732 16.9757C83.8809 16.9757 84.6003 17.3962 84.612 18.1429V18.235C84.3641 18.0951 83.8332 17.8856 83.1849 17.8856C81.8759 17.8856 80.5427 18.5961 80.5427 19.9257C80.5427 21.1386 81.6171 21.9194 82.8197 21.9194C83.7401 21.9194 84.2468 21.512 84.5651 21.0335H84.6127V21.7331H85.9327V18.2582C85.9327 16.6487 84.7191 15.7512 83.1505 15.7512L83.149 15.7526ZM82.984 20.7188C82.5367 20.7188 81.9111 20.4977 81.9111 19.9503C81.9111 19.25 82.6885 18.9818 83.3617 18.9818C83.963 18.9818 84.2461 19.1101 84.612 19.2848C84.5057 20.1243 83.7745 20.7188 82.984 20.7188ZM90.7449 15.9498L89.1755 19.8793H89.1293L87.5013 15.9498H86.0273L88.4693 21.4417L87.076 24.4968H88.5038L92.2658 15.9505H90.7449V15.9498ZM78.4197 21.7498H79.7881V12.6873H78.4197V21.7498Z" fill="white"/>
<path d="M7.65234 5.46504C7.43967 5.68834 7.31281 6.03489 7.31281 6.48366V22.5184C7.31281 22.9679 7.43894 23.313 7.65234 23.5363L7.7066 23.5885L16.7911 14.6058V14.3955L7.70514 5.41284L7.65161 5.46577L7.65234 5.46504Z" fill="url(#paint0_linear_2_32)"/>
<path d="M19.8205 17.603L16.7919 14.6066V14.3956L19.8205 11.4014L19.8895 11.4398L23.4777 13.4553C24.5021 14.0309 24.5021 14.9727 23.4777 15.5483L19.8895 17.5638L19.8205 17.603Z" fill="url(#paint1_linear_2_32)"/>
<path d="M19.8895 17.5631L16.7919 14.5L7.65234 23.5371C7.98968 23.8909 8.54701 23.9344 9.17621 23.5806L19.8902 17.5631" fill="url(#paint2_linear_2_32)"/>
<path d="M19.8895 11.4383L9.17548 5.42082C8.54774 5.06774 7.99041 5.11124 7.65234 5.46431L16.7919 14.5007L19.8895 11.439V11.4383Z" fill="url(#paint3_linear_2_32)"/>
<path opacity="0.2" d="M19.822 17.4956L9.17548 23.4754C8.58001 23.8089 8.04834 23.7871 7.70661 23.4826L7.65161 23.537L7.70588 23.5892C8.04761 23.8937 8.57854 23.9154 9.17474 23.5805L19.8887 17.563L19.8198 17.4956H19.822Z" fill="black"/>
<path opacity="0.12" d="M7.65234 23.4305C7.43967 23.2079 7.31281 22.8614 7.31281 22.4119V22.5185C7.31281 22.9679 7.43894 23.3138 7.65234 23.5371L7.70734 23.4827L7.65234 23.4305ZM23.4777 15.4425L19.822 17.4942L19.8895 17.5617L23.4777 15.5462C23.9895 15.2583 24.2462 14.8792 24.2462 14.4993C24.2022 14.8436 23.9419 15.1808 23.4777 15.4418V15.4425Z" fill="black"/>
<path opacity="0.25" d="M9.17648 5.52681L23.4779 13.5598C23.9421 13.8208 24.2039 14.1572 24.2465 14.5008C24.2465 14.1224 23.9898 13.7425 23.4779 13.4546L9.17648 5.42096C8.15201 4.84531 7.31381 5.32381 7.31381 6.4838V6.59038C7.31381 5.43038 8.15201 4.95189 9.17648 5.52681Z" fill="white"/>
<defs>
<linearGradient id="paint0_linear_2_32" x1="15.9867" y1="6.31474" x2="3.81984" y2="18.6207" gradientUnits="userSpaceOnUse">
<stop stop-color="#00A0FF"/>
<stop offset="0.007" stop-color="#00A1FF"/>
<stop offset="0.26" stop-color="#00BEFF"/>
<stop offset="0.512" stop-color="#00D2FF"/>
<stop offset="0.76" stop-color="#00DFFF"/>
<stop offset="1" stop-color="#00E3FF"/>
</linearGradient>
<linearGradient id="paint1_linear_2_32" x1="24.8116" y1="14.5007" x2="7.06714" y2="14.5007" gradientUnits="userSpaceOnUse">
<stop stop-color="#FFE000"/>
<stop offset="0.409" stop-color="#FFBD00"/>
<stop offset="0.775" stop-color="#FFA500"/>
<stop offset="1" stop-color="#FF9C00"/>
</linearGradient>
<linearGradient id="paint2_linear_2_32" x1="18.2065" y1="16.1646" x2="1.70809" y2="32.8527" gradientUnits="userSpaceOnUse">
<stop stop-color="#FF3A44"/>
<stop offset="1" stop-color="#C31162"/>
</linearGradient>
<linearGradient id="paint3_linear_2_32" x1="5.35114" y1="0.127617" x2="12.7188" y2="7.58" gradientUnits="userSpaceOnUse">
<stop stop-color="#32A071"/>
<stop offset="0.069" stop-color="#2DA771"/>
<stop offset="0.476" stop-color="#15CF74"/>
<stop offset="0.801" stop-color="#06E775"/>
<stop offset="1" stop-color="#00F076"/>
</linearGradient>
</defs>
</svg>
