<svg width="19" height="20" viewBox="0 0 19 20" fill="none" xmlns="http://www.w3.org/2000/svg">
<path fill-rule="evenodd" clip-rule="evenodd" d="M14.1833 9.32509H14.6238V8.62509C14.5357 8.14384 14.4036 7.83759 14.0952 7.88134C13.8309 7.92509 13.8309 8.31884 13.919 8.75634C13.9631 9.01884 14.0512 9.23759 14.1833 9.36884V9.32509ZM11.8048 9.71884C11.9809 9.76259 12.1131 9.85009 12.1571 9.80634V9.63134C12.025 9.45634 11.8488 9.32509 11.6286 9.19384C11.1881 9.01884 10.6595 9.10634 10.2631 9.36884C10.1309 9.45634 9.9988 9.58759 9.9988 9.67509L10.0869 9.71884C10.175 9.71884 10.5714 9.54384 11.0119 9.54384C11.3202 9.54384 11.5845 9.63134 11.8048 9.71884ZM11.4083 9.93759C11.144 9.93759 10.9679 10.0251 10.8798 10.1126L10.7917 10.3313V10.3751L11.0119 10.3313C11.3643 10.2001 11.6286 10.2001 11.8929 10.2438H12.069V10.1563C12.025 10.0251 11.7607 9.89384 11.4083 9.93759ZM13.3905 10.7251C13.5667 10.8126 13.7429 10.8126 13.8309 10.6813C13.8309 10.5501 13.7869 10.3751 13.6107 10.2876C13.4345 10.2001 13.2143 10.2438 13.1702 10.3751C13.1262 10.5063 13.1702 10.6376 13.3905 10.7251ZM14.5357 9.76259C14.3595 9.76259 14.2274 9.93759 14.2274 10.1126C14.2274 10.3313 14.3595 10.4626 14.4917 10.4626C14.6238 10.4626 14.7559 10.3313 14.7559 10.1126C14.7559 9.93759 14.6679 9.76259 14.4917 9.76259H14.5357ZM4.88928 13.2188H4.62499C4.57712 13.2259 4.52825 13.2216 4.48233 13.2064C4.43642 13.1912 4.39476 13.1655 4.36071 13.1313V12.6938L4.40476 12.6501C4.5369 12.3876 4.71309 11.9501 4.49285 11.5563C4.36071 11.2501 4.05238 11.0751 3.74404 11.0313C3.43571 10.9876 3.12738 11.1188 2.95118 11.3376C2.64285 11.6438 2.55476 12.1251 2.64285 12.3001L2.73095 12.3876C2.77499 12.3876 2.86309 12.3438 2.90714 12.2126V12.1251L3.03928 11.8188C3.12738 11.6876 3.25952 11.6001 3.39166 11.5563C3.56785 11.5563 3.69999 11.5563 3.83214 11.6438C4.05238 11.7751 4.14047 12.0813 4.05238 12.3001C4.00833 12.4313 3.92023 12.7376 3.96428 12.9126C3.96428 13.3501 4.22857 13.4813 4.49285 13.5251C4.71309 13.5251 4.88928 13.3938 4.93333 13.3063V13.1751L4.88928 13.2188Z" fill="black"/>
<path fill-rule="evenodd" clip-rule="evenodd" d="M7.04766 5.5624C7.75659 4.75946 8.60752 4.09222 9.55838 3.59365H9.60242L9.38218 4.1624C9.38218 4.20615 9.38218 4.2499 9.42623 4.20615C9.9548 3.85615 10.8358 3.50615 11.6286 3.4624V3.50615L11.2762 3.85615L11.3203 3.8999C11.8489 3.8999 12.6417 4.11865 13.1262 4.3374V4.46865C12.1061 4.22664 11.0463 4.19893 10.0147 4.38727C8.98316 4.57561 8.00257 4.97587 7.13576 5.5624H7.04766ZM13.875 14.1374V14.0499C13.875 14.0499 13.875 14.0061 13.875 14.0499C13.875 14.0499 12.2453 14.2249 10.7477 13.6999C10.9239 13.1749 11.3643 13.3499 12.025 13.4374C13.2143 13.4811 14.2274 13.3061 15.0643 13.0874C15.8728 12.8588 16.6336 12.4884 17.3108 11.9936C17.575 12.4749 17.6191 13.0436 17.6191 13.0436C17.6191 13.0436 17.8393 13.0436 17.9715 13.1311C18.1036 13.2186 18.2358 13.3936 18.1477 13.8311C18.0155 14.7061 17.6191 15.4061 17.0024 16.0624C16.3576 16.6979 15.5737 17.177 14.7119 17.4624C12.2893 18.2061 9.86671 17.3749 9.07385 15.5811L8.94171 15.1436C8.58933 13.9624 8.85361 12.5186 9.77861 11.6436L9.86671 11.4249C9.86671 11.3811 9.86671 11.2936 9.77861 11.2499C9.47028 10.8124 8.41314 10.0249 8.63338 8.58115C8.76552 7.53115 9.69052 6.83115 10.5715 6.83115H10.7917L11.8048 6.91865C12.3334 6.91865 12.8179 6.8749 13.3465 6.4374C13.5667 6.2624 13.6989 6.13115 13.9631 6.0874H14.1834C14.3155 6.0874 14.4477 6.0874 14.5798 6.1749C15.0203 6.48115 15.0643 7.18115 15.1084 7.70615L15.1524 8.8874C15.1524 9.36865 15.3286 9.45615 15.5929 9.4999L16.0334 9.63115C16.4563 9.72463 16.8496 9.91994 17.1786 10.1999C17.3108 10.3311 17.3989 10.4624 17.3989 10.5936C17.4869 11.0749 17.0024 11.6874 15.7691 12.2561C14.37 12.8591 12.8317 13.0709 11.3203 12.8686C10.4393 12.7374 9.91076 13.8749 10.4393 14.6186C10.7917 15.1436 11.7608 15.4936 12.6417 15.4936C14.8441 15.4936 16.5179 14.5749 17.1346 13.7874L17.1786 13.7436V13.6999C16.65 14.0061 14.4036 15.3624 11.981 14.9686C11.981 14.9686 11.6727 14.9249 11.4084 14.7936C11.1881 14.7499 10.7477 14.5311 10.7036 14.0936C12.6417 14.6624 13.875 14.0936 13.875 14.0936V14.1374ZM3.21552 9.5874C2.53996 9.70435 1.93832 10.0818 1.54171 10.6374C1.2963 10.4288 1.07473 10.1941 0.880994 9.9374C0.264327 8.84365 1.49766 6.74365 2.33457 5.5624C4.44885 2.6749 7.75242 0.443648 9.25004 0.837398C9.51433 0.924898 10.3512 1.84365 10.3512 1.84365C10.3512 1.84365 8.80957 2.6749 7.40004 3.8124C5.50599 5.25615 4.05242 7.3124 3.21552 9.5874ZM4.31671 14.5749H4.00838C2.99528 14.5749 1.89409 13.6561 1.80599 12.6061C1.67385 11.4249 2.24647 10.5061 3.39171 10.2874H3.83218C4.44885 10.2874 5.3298 10.7249 5.55004 12.0374C5.72623 13.2186 5.4179 14.3561 4.31671 14.5749ZM18.1036 12.4749L17.9715 12.0374L17.7953 11.5999C18.1036 11.1624 18.1477 10.7249 18.1036 10.4624C18.0596 10.1999 17.9274 9.9374 17.6631 9.6749C17.2424 9.32869 16.7438 9.08855 16.2096 8.9749L15.8572 8.8874L15.8131 7.6624C15.8131 7.3999 15.8131 7.00615 15.6369 6.56865C15.5048 6.04365 15.1965 5.5624 14.8881 5.25615C15.7691 4.3374 16.3858 3.2874 16.3858 2.4124C16.3858 0.662399 14.2274 0.181148 11.5846 1.23115L11.056 1.49365L9.99885 0.487399C7.04766 -2.09385 -2.42258 8.1874 0.572661 10.6374L1.23337 11.2499C1.05718 11.6874 1.01314 12.1686 1.05718 12.6936C1.1616 13.4131 1.52024 14.0721 2.06897 14.553C2.6177 15.0339 3.32075 15.3053 4.05242 15.3186C5.24171 17.9874 7.92861 19.6061 11.1 19.6936C14.4477 19.7811 17.2667 18.2499 18.456 15.4936C18.5441 15.2749 18.8524 14.3999 18.8524 13.6124C18.8524 12.8249 18.4119 12.5186 18.1036 12.5186V12.4749Z" fill="black"/>
</svg>
